<svg id="Unsplash_wordmark_logo" xmlns="http://www.w3.org/2000/svg" width="100" height="23.001" viewBox="0 0 100 23.001">
  <path id="Shape" d="M59.02,23H56.44V9.646h2.493v1.192a3.331,3.331,0,0,1,2.93-1.413,4.107,4.107,0,0,1,3.258,1.438,5.454,5.454,0,0,1,1.159,3.573,5.49,5.49,0,0,1-1.244,3.631,4.2,4.2,0,0,1-3.261,1.446,3.349,3.349,0,0,1-2.756-1.17V23Zm2.362-11.236A2.441,2.441,0,0,0,59,14.458a2.454,2.454,0,0,0,2.383,2.715,2.419,2.419,0,0,0,2.362-2.715A2.407,2.407,0,0,0,61.382,11.765Zm24.929,7.814c-2.762,0-3.9-1.688-4.046-3.267h2.3a1.61,1.61,0,0,0,1.728,1.281c.9,0,1.312-.492,1.312-.95,0-.488-.346-.807-1.028-.949l-1.312-.287c-1.7-.367-2.668-1.413-2.668-2.87a3.343,3.343,0,0,1,3.564-3.156,3.729,3.729,0,0,1,2.756,1.027,3,3,0,0,1,.852,2.02h-2.23c-.105-.718-.583-1.082-1.422-1.082a1.034,1.034,0,0,0-1.158.95c0,.448.3.745.875.86l1.421.287c1.789.378,2.843,1.484,2.821,2.957C90.072,17.979,88.78,19.579,86.311,19.579Zm-34.791,0c-2.762,0-3.9-1.688-4.045-3.267h2.3A1.61,1.61,0,0,0,51.5,17.592c.906,0,1.312-.477,1.312-.95,0-.488-.346-.807-1.028-.949l-1.312-.287c-1.7-.367-2.668-1.413-2.668-2.87a3.343,3.343,0,0,1,3.564-3.156,3.729,3.729,0,0,1,2.756,1.027,3,3,0,0,1,.852,2.02h-2.23c-.105-.718-.583-1.082-1.421-1.082a1.034,1.034,0,0,0-1.159.95c0,.448.3.745.875.86l1.421.287c1.79.378,2.844,1.484,2.821,2.957C55.281,17.979,53.989,19.579,51.52,19.579Zm-20.884,0a5.3,5.3,0,0,1-5.488-5.562V5.386h2.668v8.653a2.811,2.811,0,1,0,5.62,0h.023V5.386h2.668v8.631A5.287,5.287,0,0,1,30.636,19.579Zm45.135-.066a4.2,4.2,0,0,1-3.261-1.446,5.49,5.49,0,0,1-1.244-3.631,5.474,5.474,0,0,1,1.157-3.582,4.079,4.079,0,0,1,3.238-1.429,3.352,3.352,0,0,1,2.93,1.413V9.646h2.515v9.645h-2.58V18.1A3.143,3.143,0,0,1,75.771,19.513Zm.415-7.748a2.407,2.407,0,0,0-2.362,2.693,2.419,2.419,0,0,0,2.362,2.715,2.454,2.454,0,0,0,2.384-2.715A2.441,2.441,0,0,0,76.186,11.765ZM100,19.292H97.42V13.663a1.683,1.683,0,0,0-1.771-1.92,1.8,1.8,0,0,0-1.793,1.876V19.27h-2.58V5.386h2.58v5.055a3.319,3.319,0,0,1,2.58-1.06c2.207,0,3.54,1.436,3.564,3.841v6.069Zm-59.676,0h-2.58V9.646h2.493v1.192a3.169,3.169,0,0,1,2.755-1.457A3.262,3.262,0,0,1,45.608,10.5a4.251,4.251,0,0,1,.861,2.7v6.07H43.888V13.641a1.684,1.684,0,0,0-1.771-1.921,1.808,1.808,0,0,0-1.793,2.009v5.561Zm-21.211,0H0V8.542H6.014v5.364h7.063V8.542h6.035V19.291Zm50.951-.022h-2.58V5.386h2.58V19.269ZM13.077,5.386H6.014V0h7.063V5.385Z"/>
</svg>
